<?xml version="1.0"?>
<svg xmlns="http://www.w3.org/2000/svg" xmlns:xlink="http://www.w3.org/1999/xlink" version="1.1" id="Capa_1" x="0px" y="0px" viewBox="0 0 512.001 512.001" style="enable-background:new 0 0 512.001 512.001;" xml:space="preserve" width="512px" height="512px" class=""><g><g>
	<g>
		<path d="M391.182,397.405l-38.596-92.629c-1.827-4.383-5.494-7.646-10.06-8.951l-47.077-13.451    c0.075-0.765,0.116-1.541,0.116-2.326c0-1.405-0.131-2.779-0.368-4.117l34.428-27.542c3.078-2.462,5.506-5.686,7.022-9.325    l38.502-92.404c1.593-3.824-0.215-8.215-4.038-9.808c-3.825-1.594-8.214,0.214-9.808,4.038l-38.502,92.404    c-0.55,1.319-1.43,2.488-2.546,3.381l-32.429,25.943c-2.374-2.153-5.192-3.824-8.294-4.87v-16.4    c3.846-2.227,7.341-5.025,10.37-8.372c8.948-9.89,13.678-24.103,13.678-41.104c0-8.204-1.112-15.751-3.258-22.484L321.7,145.29    c3.823-4.31,5.928-9.855,5.928-15.616V37.558c0-2.544,0.393-5.063,1.168-7.487l6.491-20.283c1.263-3.945-0.912-8.167-4.857-9.429    c-3.942-1.261-8.166,0.912-9.429,4.857L314.512,25.5c-1.249,3.904-1.882,7.96-1.882,12.058v92.115c0,2.089-0.763,4.1-2.149,5.662    l-17.306,19.509c-1.02-1.428-2.108-2.791-3.271-4.076c-0.527-0.582-1.068-1.148-1.622-1.698    c6.586-25.311-10.278-42.02-11.035-42.752c-2.979-2.878-7.747-2.816-10.625,0.16c-2.879,2.979-2.819,7.707,0.16,10.586    c0.432,0.431,9.026,9.2,7.899,22.902c-5.709-2.42-12.025-3.69-18.679-3.69c-6.654,0-12.969,1.271-18.679,3.691    c-1.123-13.652,7.404-22.406,7.894-22.897c2.944-2.882,3.013-7.604,0.145-10.571c-2.879-2.978-7.627-3.059-10.605-0.18    c-0.757,0.732-17.621,17.441-11.035,42.752c-0.554,0.55-1.095,1.115-1.622,1.698c-1.163,1.286-2.252,2.648-3.271,4.076    l-17.306-19.509c-1.386-1.563-2.149-3.574-2.149-5.663V37.558c0-4.098-0.633-8.154-1.882-12.058L191,5.216    c-1.262-3.946-5.485-6.12-9.429-4.857c-3.945,1.262-6.12,5.484-4.857,9.429l6.491,20.283c0.775,2.424,1.168,4.943,1.168,7.487    v92.115c0,5.76,2.105,11.306,5.928,15.616l21.378,24.099c-2.145,6.733-3.258,14.28-3.258,22.484    c0,17.001,4.73,31.215,13.678,41.104c3.029,3.347,6.524,6.146,10.37,8.372v16.401c-3.102,1.046-5.919,2.717-8.294,4.87    l-32.43-25.944c-1.115-0.892-1.996-2.061-2.545-3.38l-38.502-92.404c-1.593-3.823-5.984-5.632-9.808-4.038    c-3.823,1.593-5.631,5.984-4.038,9.808l38.502,92.404c1.516,3.639,3.944,6.863,7.021,9.324l34.429,27.543    c-0.237,1.338-0.368,2.712-0.368,4.117c0,0.785,0.04,1.56,0.116,2.326l-47.077,13.451c-4.566,1.305-8.233,4.567-10.06,8.951    l-38.596,92.629c-1.593,3.824,0.215,8.215,4.038,9.808c0.943,0.393,1.92,0.579,2.882,0.579c2.937,0,5.726-1.737,6.926-4.617    l38.596-92.628c0.061-0.146,0.183-0.255,0.335-0.298l46.304-13.23c-5.122,7.654-9.717,16.847-13.619,27.036l-29.778,25.68    c-5.188,4.474-8.164,10.969-8.164,17.821v99.203c0,2.555-0.604,5.114-1.747,7.401L153.1,501.144    c-1.853,3.705-0.351,8.21,3.354,10.062c1.077,0.539,2.221,0.793,3.348,0.793c2.751,0,5.4-1.52,6.714-4.147l13.494-26.987    c2.179-4.358,3.331-9.237,3.331-14.108v-99.203c0-2.484,1.079-4.839,2.96-6.461l11.862-10.23    c-3.692,15.948-5.774,32.923-5.774,49.428c0,24.961,6.253,48.535,17.607,66.376c12.024,18.894,28.362,29.3,46.005,29.3    c17.643,0,33.981-10.406,46.005-29.3c11.354-17.843,17.607-41.416,17.607-66.377c0-16.503-2.078-33.479-5.77-49.424l11.858,10.227    c1.881,1.622,2.96,3.977,2.96,6.461v99.203c0,4.872,1.152,9.75,3.331,14.109l13.493,26.987c1.314,2.628,3.962,4.147,6.714,4.147    c1.127,0,2.271-0.255,3.348-0.793c3.705-1.852,5.207-6.357,3.354-10.062l-13.493-26.986c-1.143-2.287-1.748-4.846-1.748-7.401    v-99.203c0-6.852-2.976-13.347-8.164-17.821l-29.77-25.674c-3.904-10.193-8.505-19.385-13.629-27.043l46.306,13.23    c0.152,0.043,0.274,0.152,0.335,0.298l38.596,92.629c1.2,2.88,3.988,4.617,6.926,4.617c0.961,0,1.939-0.186,2.882-0.579    C390.967,405.62,392.775,401.229,391.182,397.405z M223.421,191.872c0-25.041,12.484-40.597,32.581-40.597    s32.581,15.556,32.581,40.597c0,25.041-12.484,40.597-32.581,40.597S223.421,216.912,223.421,191.872z M264.534,246.732v9.785    H247.47v-9.785c2.765,0.478,5.614,0.736,8.532,0.736S261.768,247.21,264.534,246.732z M239.969,288.58    c-4.705,0-8.532-3.828-8.532-8.532c0-4.704,3.828-8.532,8.533-8.532h32.064c4.705,0,8.532,3.828,8.532,8.532    c0,4.704-3.828,8.532-8.532,8.532c-4.142,0-7.5,3.358-7.5,7.5s3.358,7.5,7.5,7.5c2.023,0,3.988-0.257,5.862-0.74    c2.528,3.467,4.936,7.41,7.197,11.736c-9.121,3.979-19.062,6.068-29.092,6.068c-10.018,0-19.974-2.091-29.091-6.068    c2.261-4.326,4.668-8.269,7.197-11.736c1.875,0.483,3.839,0.74,5.862,0.74c4.142,0,7.5-3.358,7.5-7.5    S244.111,288.58,239.969,288.58z M256.002,480.966c-10.729,0-21.085-6.013-29.637-17.064h59.273    C277.086,474.953,266.73,480.966,256.002,480.966z M294.63,448.902h-77.258c-2.462-5.307-4.499-11.028-6.071-17.064h89.401    C299.129,437.875,297.092,443.595,294.63,448.902z M304.613,400.29c0,5.63-0.354,11.166-1.039,16.548h-95.146    c-0.684-5.382-1.039-10.918-1.039-16.548c0-0.171,0.005-0.344,0.005-0.516h97.214C304.608,399.946,304.613,400.119,304.613,400.29    z M298.844,352.709h-10.783c-4.142,0-7.5,3.358-7.5,7.5s3.359,7.5,7.501,7.5h13.802c0.928,5.645,1.634,11.359,2.099,17.065    h-95.924c0.465-5.706,1.17-11.42,2.099-17.065H256c4.142,0,7.5-3.358,7.5-7.5s-3.358-7.5-7.5-7.5h-42.844    c2.063-8.622,4.627-16.877,7.587-24.458c11.05,4.846,23.119,7.394,35.257,7.394c12.153,0,24.203-2.547,35.257-7.396    C294.217,335.832,296.78,344.086,298.844,352.709z" data-original="#000000" class="active-path" data-old_color="#000000" fill="#66AD69"/>
	</g>
</g></g> </svg>
