<?xml version="1.0"?>
<svg xmlns="http://www.w3.org/2000/svg" height="512px" viewBox="-96 0 496 496" width="512px" class=""><g><path d="m256 128.640625v-24.640625c0-4.414062-3.585938-8-8-8h-24v-16h16v-16h-16v-16h48v-16h-56c-4.414062 0-8 3.585938-8 8v24h-16v-32c0-8.824219 7.175781-16 16-16h64v-16h-64c-17.648438 0-32 14.351562-32 32v32h-16v16h16v16h-48v-16h16v-16h-16v-32c0-17.648438-14.351562-32-32-32h-64v16h64c8.824219 0 16 7.175781 16 16v32h-16v-24c0-4.414062-3.585938-8-8-8h-56v16h48v16h-16v16h16v16h-24c-4.414062 0-8 3.585938-8 8v24.640625c-27.097656 3.902344-48 27.207031-48 55.359375v192c0 28.152344 20.902344 51.457031 48 55.359375v56.640625c0 4.414062 3.585938 8 8 8h32c4.414062 0 8-3.585938 8-8v-24h112v24c0 4.414062 3.585938 8 8 8h32c4.414062 0 8-3.585938 8-8v-56.640625c27.097656-3.902344 48-27.207031 48-55.359375v-192c0-28.152344-20.902344-51.457031-48-55.359375zm-16-16.640625v16h-16v-16zm-48 16v-16h16v16zm0-48h16v16h-16zm-16 32v16h-48v-16zm-80 16v-16h16v16zm0-48h16v16h-16zm-16 32v16h-16v-16zm160 368h-16v-24c0-4.414062-3.585938-8-8-8h-128c-4.414062 0-8 3.585938-8 8v24h-16v-48h176zm-23.160156-211.574219c-9.167969 18.335938-25.726563 32.078125-45.449219 37.710938l-11.390625 3.253906v-13.390625c0-22.054688 17.945312-40 40-40h56v24c0 22.054688-17.945312 40-40 40h-35.785156c22.042968-7.574219 40.464844-23.488281 50.9375-44.425781zm-72.839844 72.964844-11.398438-3.253906c-19.714843-5.632813-36.273437-19.375-45.441406-37.710938l-14.3125 7.160157c10.472656 20.933593 28.894532 36.847656 50.9375 44.421874h-35.785156c-22.054688 0-40-17.945312-40-40v-24h56c22.054688 0 40 17.945313 40 40zm144 34.609375c0 22.054688-17.945312 40-40 40h-88v-80h56c30.878906 0 56-25.121094 56-56v-32c0-4.414062-3.585938-8-8-8h-64c-28.625 0-52.273438 21.601562-55.566406 49.359375-10.203125-10.671875-24.539063-17.359375-40.433594-17.359375h-64c-4.414062 0-8 3.585938-8 8v32c0 30.878906 25.121094 56 56 56h56v48h-88c-22.054688 0-40-17.945312-40-40v-192c0-22.054688 17.945312-40 40-40h192c22.054688 0 40 17.945312 40 40zm0 0" data-original="#000000" class="active-path" data-old_color="#000000" fill="#66AD69"/></g> </svg>
