<?xml version="1.0"?>
<svg xmlns="http://www.w3.org/2000/svg" xmlns:xlink="http://www.w3.org/1999/xlink" version="1.1" id="Capa_1" x="0px" y="0px" viewBox="0 0 512 512" style="enable-background:new 0 0 512 512;" xml:space="preserve" width="512px" height="512px" class=""><g><g>
	<g>
		<path d="M262.999,177.521c4.698-4.285,17.332-15.146,37.786-28.05c3.615,2.339,21.471,20.638,47.303,15.858    c42.134-7.752,67.598-71.449,68.662-74.165c1.66-4.212-0.722-8.919-5.056-10.103c-2.736-0.75-67.436-18.108-101.636,8.036    c-13.629,10.417-20.52,25.951-20.479,46.197c0.01,0.971,0.193,1.921,0.555,2.812c-11.16,7.167-19.979,13.697-26.466,18.876    c-0.009-5.319,0.162-12.765-0.436-25.974c20.398-13.224,30.957-29.143,31.403-47.352c1.054-42.823-56.067-80.812-58.499-82.413    c-1.804-1.186-4.023-1.54-6.11-0.993c-2.087,0.547-3.84,1.956-4.823,3.871c-1.297,2.523-31.555,62.278-12.991,101.129    c6.759,14.136,18.858,23.641,36.003,28.302c0.892,21.656,0.214,44.522-2.293,67.126c-9.564,0.271-19.147,1.418-28.632,3.469    c-4.167,0.893-6.81,4.998-5.917,9.164c0.907,4.163,5.012,6.806,9.169,5.908c45.274-9.784,92.518,3.25,126.188,35.341    c-16.805,11.548-33.811,16.137-44.513,31.959c-5.644,8.34-7.439,17.307-11.578,24.389c-2.82,4.819-8.043,8.856-10.769,8.295    c-3.403-0.695-10.392-8.55-16.752-11.975c-12.911-6.91-21.518-2.26-25.498,1.119c-10.365,8.815-12.159,27.777-7.878,40.279    c18.326,53.587,84.871,58.764,93.404,61.772c5.102,0.822,10.378,1.671,12.658,4.352c6.377,7.417-6.819,20.345-13.956,27.158    c-10.478,10.025-18.308,28.443-24.277,46.194c-41.839,15.017-89.798,9.388-127.354-16.889    c20.426-19.758,47.445-46.415,48.095-72.23c0.754-30.247-13.636-64.932-38.505-92.786c-29.709-33.175-27.322-30.335-35.322-41.92    c12.882-14.813,29.235-27.369,48.334-35.957c3.889-1.744,5.625-6.311,3.876-10.191c-1.744-3.889-6.302-5.62-10.191-3.876    c-82.224,36.993-115.028,135.293-74.342,213.561c0.716,1.392,1.794,2.455,3.058,3.165c6.667,3.738,14.144-3.503,10.628-10.271    c-23.953-46.127-20.39-101.28,8.746-143.649c7.009,9.91,5.35,7.72,33.71,39.413c22.321,25,35.257,55.698,34.598,82.12    c-0.51,20.059-26.05,44.752-44.696,62.785c-0.082,0.083-0.164,0.167-0.25,0.236c-5.613-4.928-11.111-10.582-16.019-16.562    c-2.708-3.286-7.568-3.76-10.855-1.054c-3.286,2.707-3.76,7.568-1.054,10.855c91.815,111.301,268.464,48.763,275.595-90.722    c0.216-4.252-3.055-7.879-7.307-8.093c-4.252-0.216-7.879,3.055-8.093,7.308c-2.567,50.234-31.469,93.416-73.03,115.981    c9.634-23.836,14.985-25.201,22.845-33.866c18.069-19.736,14.056-33.031,7.503-40.725c-5.969-6.99-14.828-8.409-21.94-9.557    c-5.828-1.986-66.024-6.993-81.268-51.548c-2.725-7.964-1.074-19.839,3.271-23.531c4.007-3.355,10.84,2.387,14.409,5.393    c4.258,3.59,9.072,7.658,14.762,8.82c11.068,2.27,21.846-6.502,27.18-15.617c4.794-8.203,6.743-17.189,11.032-23.54    c8.269-12.2,21.758-14.913,42.442-29.253c16.494,19.523,27.248,43.019,31.253,68.305c0.667,4.241,4.633,7.072,8.819,6.407    c4.201-0.662,7.077-4.613,6.416-8.814c-11.345-71.49-70.573-125.791-142.806-130.804c0.777-7.254,1.431-15.103,1.888-23.463    C262.998,177.528,262.998,177.524,262.999,177.521z M353.741,147.687c-21.56,9.822-37.827-6.251-39.116-6.527    c2.968-1.696,6.054-3.41,9.265-5.131L353.741,147.687C353.741,147.687,353.741,147.687,353.741,147.687z M386.316,116.178    l-10.676-3.448c5.291-1.97,10.762-3.89,16.414-5.747C388.923,112.358,386.423,116.011,386.316,116.178z M373.003,90.244    c0.545,0.051,6.45,0.332,15.98,1.743c0.003,0,0.005,0.001,0.008,0.001c-6.513,2.108-12.79,4.297-18.841,6.546L373.003,90.244z     M376.669,129.035c-2.482,2.917-5.106,5.693-7.841,8.225l-26.689-10.421c3.728-1.763,7.577-3.517,11.558-5.255    C354.249,121.812,360.408,123.773,376.669,129.035z M344.409,91.287c6.603-1.1,12.214-1.25,12.601-1.277l-5.474,15.911    c-5.19,2.196-10.181,4.424-14.97,6.667L344.409,91.287z M326.138,96.916l-9.432,25.615c-4.068,2.176-7.951,4.339-11.645,6.476    C307.302,104.389,323.609,99.054,326.138,96.916z M230.632,30.265c2.087,6.526,3.962,13.062,5.634,19.577v0.004l-10.02-5.979    C227.615,38.986,229.134,34.388,230.632,30.265z M221.411,72.074c0.162-4.185,0.638-8.42,1.327-12.594    c0-0.001,0-0.003,0.001-0.004l18.136,10.822c0,0.001,0.001,0.003,0.001,0.004c1.044,5.259,1.956,10.498,2.756,15.686v0.001    L221.411,72.074z M225.941,98.715c-1.155-2.411-2.066-4.953-2.755-7.597l22.981,14.39v0.005c0.426,3.972,0.79,7.914,1.094,11.805    C237.128,113.56,230.116,107.429,225.941,98.715z M250.26,43.349v-0.003c-1.338-5.097-2.797-10.184-4.378-15.281    c2.807,2.503,5.664,5.208,8.481,8.086c0.002,0.002,0.003,0.003,0.005,0.005L250.26,43.349z M255.317,65.144v-0.001l9.656-16.902    l0.001,0.001c2.341,3.04,4.519,6.171,6.435,9.363c0,0.001,0.001,0.002,0.001,0.002l-13.63,20.854v-0.003    C257.039,74.051,256.219,69.602,255.317,65.144z M260.951,101.391l17.571-26.882c2.916,12.815-0.689,25.978-16.436,38.636    C261.772,109.263,261.387,105.342,260.951,101.391z" data-original="#000000" class="active-path" data-old_color="#FFFFFF" fill="#66AD69"/>
	</g>
</g></g> </svg>
